<?xml version="1.0" encoding="UTF-8"?><svg id="a" xmlns="http://www.w3.org/2000/svg" viewBox="0 0 100 100"><rect x="28.61" y="30.92" width="42.78" height="12.83" style="fill:#fff; stroke-width:0px;"/><rect x="28.61" y="56.06" width="42.78" height="12.84" style="fill:#fff; stroke-width:0px;"/><polygon points="1 5.81 1 18.66 1 81.34 1 94.19 13.84 94.19 39.68 94.19 39.68 81.34 13.84 81.34 13.84 18.66 39.68 18.66 39.68 5.81 13.84 5.81 1 5.81" style="fill:#fff; stroke-width:0px;"/><polygon points="86.17 5.81 59.61 5.81 59.61 18.66 86.17 18.66 86.17 81.34 59.61 81.34 59.61 94.19 86.17 94.19 99 94.19 99 81.34 99 18.66 99 5.81 86.17 5.81" style="fill:#fff; stroke-width:0px;"/></svg>